<?xml version="1.0" encoding="UTF-8" standalone="no"?><svg xmlns="http://www.w3.org/2000/svg" xmlns:xlink="http://www.w3.org/1999/xlink" contentStyleType="text/css" height="209px" preserveAspectRatio="none" style="width:432px;height:209px;background:#FFFFFF;" version="1.1" viewBox="0 0 432 209" width="432px" zoomAndPan="magnify"><defs/><g><!--MD5=[575590cddc00ffe1683445b9e958d03a]
cluster Lokaler PC--><g id="cluster_Lokaler PC"><path d="M8.5,6 L93.5,6 A3.75,3.75 0 0 1 96,8.5 L103,28.2969 L404.5,28.2969 A2.5,2.5 0 0 1 407,30.7969 L407,100.5 A2.5,2.5 0 0 1 404.5,103 L8.5,103 A2.5,2.5 0 0 1 6,100.5 L6,8.5 A2.5,2.5 0 0 1 8.5,6 " style="stroke:#000000;stroke-width:1.5;fill:none;"/><line style="stroke:#000000;stroke-width:1.5;fill:none;" x1="6" x2="103" y1="28.2969" y2="28.2969"/><text fill="#000000" font-family="sans-serif" font-size="14" font-weight="bold" lengthAdjust="spacing" textLength="84" x="10" y="20.9951">Lokaler PC</text></g><!--MD5=[4fc1ac28b9453f935aefe8a6ee357971]
entity Bibliothek--><g id="elem_Bibliothek"><rect fill="#008000" height="46.2969" rx="2.5" ry="2.5" style="stroke:#181818;stroke-width:0.5;" width="108" x="22" y="41"/><rect fill="#008000" height="10" style="stroke:#181818;stroke-width:0.5;" width="15" x="110" y="46"/><rect fill="#008000" height="2" style="stroke:#181818;stroke-width:0.5;" width="4" x="108" y="48"/><rect fill="#008000" height="2" style="stroke:#181818;stroke-width:0.5;" width="4" x="108" y="52"/><text fill="#000000" font-family="sans-serif" font-size="14" lengthAdjust="spacing" textLength="68" x="37" y="73.9951">Bibliothek</text></g><!--MD5=[d0d233bded309c27ed7bae3808f404b2]
entity Kontrollanwendung--><g id="elem_Kontrollanwendung"><rect fill="#FFFF00" height="46.2969" rx="2.5" ry="2.5" style="stroke:#181818;stroke-width:0.5;" width="174" x="217" y="41"/><rect fill="#FFFF00" height="10" style="stroke:#181818;stroke-width:0.5;" width="15" x="371" y="46"/><rect fill="#FFFF00" height="2" style="stroke:#181818;stroke-width:0.5;" width="4" x="369" y="48"/><rect fill="#FFFF00" height="2" style="stroke:#181818;stroke-width:0.5;" width="4" x="369" y="52"/><text fill="#000000" font-family="sans-serif" font-size="14" lengthAdjust="spacing" textLength="134" x="232" y="73.9951">Kontrollanwendung</text></g><!--MD5=[9af44e35ac65833408de7c370c605c59]
entity Verbindung zum Smartphone--><g id="elem_Verbindung zum Smartphone"><path d="M195.7014,159.627 C201.5163,150.8721 207.6504,150.3128 213.6767,159.4142 C217.2383,153.0093 222.63,152.9991 227.2493,158.1745 C230.9886,149.3988 237.7911,150.5116 243.0538,156.5491 C249.0016,149.3275 255.0255,150.6584 259.3272,158.3459 C264.3453,151.7739 269.3061,151.2921 274.9048,157.6462 C278.4897,149.3987 286.0608,150.8383 290.0495,157.2285 C294.8819,150.7966 299.7759,150.6498 305.1041,156.6269 C310.1203,149.1095 316.7244,148.6032 322.2625,156.0276 C326.3302,147.9625 332.9903,148.3325 337.6588,155.4171 C343.5594,150.5202 348.7266,149.5897 351.8386,158.3189 C355.9665,150.6792 362.4119,150.91 367.5186,157.2187 C372.3547,150.4584 377.0326,150.7253 382.0596,157.0059 C387.8893,151.0369 394.1165,152.4862 397.6034,159.7566 C403.8672,150.5304 409.8316,150.8565 415.2435,160.5509 C424.0641,162.4979 425.6736,167.0312 419.938,174.043 C425.6323,181.3855 422.001,187.2528 414.0511,189.3467 C409.5358,196.1724 404.1425,196.8945 399.0154,190.018 C394.4545,198.1591 387.128,198.2619 382.9909,189.6135 C379.1084,197.5516 374.2969,197.3446 368.5904,191.5224 C362.9083,200.0962 355.6513,198.8018 351.0673,190.3896 C348.1621,198.2273 341.8883,197.6376 337.1279,192.3616 C332.1637,200.6874 326.5159,202.4419 320.2954,193.5928 C313.9943,199.9313 309.5215,198.787 305.3072,191.3262 C301.3756,198.3534 295.1981,200.2188 289.62,193.1598 C283.6829,200.7858 278.4687,199.4064 273.2013,192.4079 C267.7596,198.7631 263.4635,196.9248 260.0036,190.3804 C255.6758,198.1933 249.3347,199.0137 243.9436,191.4942 C239.252,199.5113 232.1149,199.0702 227.6582,191.2526 C224.0225,197.4067 217.3197,197.6787 213.8353,191.0885 C207.6768,199.3372 201.3851,199.0134 196.6524,189.6941 C186.3171,189.3361 183.4445,183.9806 188.399,175.0219 C184.1177,167.9808 187.2531,160.63 195.7014,159.627 " fill="#F1F1F1" style="stroke:#181818;stroke-width:0.5;"/><text fill="#000000" font-family="sans-serif" font-size="14" lengthAdjust="spacing" textLength="203" x="202.5" y="177.9951">Verbindung zum Smartphone</text></g><!--MD5=[3f990037394deda638698b4d3e8d5073]
reverse link Bibliothek to Kontrollanwendung--><g id="link_Bibliothek_Kontrollanwendung"><path d="M135.32,81.83 C139.59,82.69 143.84,83.43 148,84 C170.32,87.04 194.46,86.05 216.92,83.3 " fill="none" id="Bibliothek-backto-Kontrollanwendung" style="stroke:#181818;stroke-width:1.0;"/><polygon fill="#181818" points="130.32,80.76,138.2867,86.5506,135.2098,81.8037,139.9567,78.7269,130.32,80.76" style="stroke:#181818;stroke-width:1.0;"/><text fill="#000000" font-family="sans-serif" font-size="13" lengthAdjust="spacing" textLength="49" x="149" y="80.0669">Antwort</text></g><!--MD5=[cd7ed8d1387f5543aafbfa9830777f0a]
link Bibliothek to Kontrollanwendung--><g id="link_Bibliothek_Kontrollanwendung"><path d="M130.03,64 C154.45,64 184.01,64 211.77,64 " fill="none" id="Bibliothek-to-Kontrollanwendung" style="stroke:#181818;stroke-width:1.0;"/><polygon fill="#181818" points="216.94,64,207.94,60,211.94,64,207.94,68,216.94,64" style="stroke:#181818;stroke-width:1.0;"/><text fill="#000000" font-family="sans-serif" font-size="13" lengthAdjust="spacing" textLength="50" x="148.5" y="57.0669">Anfrage</text></g><!--MD5=[ce607bcc58e0b1015ae93523332fbc2d]
link Kontrollanwendung to Verbindung zum Smartphone--><g id="link_Kontrollanwendung_Verbindung zum Smartphone"><path d="M304,92.52 C304,108.53 304,128.63 304,144.61 " fill="none" id="Kontrollanwendung-Verbindung zum Smartphone" style="stroke:#181818;stroke-width:1.0;"/><polygon fill="#181818" points="304,149.86,308,140.86,304,144.86,300,140.86,304,149.86" style="stroke:#181818;stroke-width:1.0;"/><polygon fill="#181818" points="304,87.17,300,96.17,304,92.17,308,96.17,304,87.17" style="stroke:#181818;stroke-width:1.0;"/></g><!--MD5=[a5d29efcd32df5101843a35ac987f1d8]
@startuml

package "Lokaler PC"{
component Bibliothek #Green
component Kontrollanwendung #Yellow
}

cloud "Verbindung zum Smartphone"

Kontrollanwendung -left-> Bibliothek : Antwort
Bibliothek -right-> Kontrollanwendung : Anfrage
Kontrollanwendung <-down-> [Verbindung zum Smartphone]

@enduml

PlantUML version 1.2022.6(Tue Jun 21 19:34:49 CEST 2022)
(GPL source distribution)
Java Runtime: OpenJDK Runtime Environment
JVM: OpenJDK 64-Bit Server VM
Default Encoding: UTF-8
Language: de
Country: DE
--></g></svg>