<?xml version="1.0" encoding="UTF-8" standalone="no"?><svg xmlns="http://www.w3.org/2000/svg" xmlns:xlink="http://www.w3.org/1999/xlink" contentStyleType="text/css" height="276px" preserveAspectRatio="none" style="width:304px;height:276px;background:#FFFFFF;" version="1.1" viewBox="0 0 304 276" width="304px" zoomAndPan="magnify"><defs/><g><line style="stroke:#181818;stroke-width:0.5;stroke-dasharray:5.0,5.0;" x1="42" x2="42" y1="37.6094" y2="239.7188"/><line style="stroke:#181818;stroke-width:0.5;stroke-dasharray:5.0,5.0;" x1="165" x2="165" y1="37.6094" y2="239.7188"/><line style="stroke:#181818;stroke-width:0.5;stroke-dasharray:5.0,5.0;" x1="278" x2="278" y1="37.6094" y2="239.7188"/><rect fill="#008000" height="31.6094" rx="2.5" ry="2.5" style="stroke:#181818;stroke-width:0.5;" width="75" x="5" y="5"/><text fill="#000000" font-family="sans-serif" font-size="14" lengthAdjust="spacing" textLength="61" x="12" y="26.5332">Bibliothek</text><rect fill="#008000" height="31.6094" rx="2.5" ry="2.5" style="stroke:#181818;stroke-width:0.5;" width="75" x="5" y="238.7188"/><text fill="#000000" font-family="sans-serif" font-size="14" lengthAdjust="spacing" textLength="61" x="12" y="260.252">Bibliothek</text><rect fill="#FFFF00" height="31.6094" rx="2.5" ry="2.5" style="stroke:#181818;stroke-width:0.5;" width="135" x="98" y="5"/><text fill="#000000" font-family="sans-serif" font-size="14" lengthAdjust="spacing" textLength="121" x="105" y="26.5332">Kontrollanwendung</text><rect fill="#FFFF00" height="31.6094" rx="2.5" ry="2.5" style="stroke:#181818;stroke-width:0.5;" width="135" x="98" y="238.7188"/><text fill="#000000" font-family="sans-serif" font-size="14" lengthAdjust="spacing" textLength="121" x="105" y="260.252">Kontrollanwendung</text><rect fill="#FF0000" height="31.6094" rx="2.5" ry="2.5" style="stroke:#181818;stroke-width:0.5;" width="39" x="259" y="5"/><text fill="#000000" font-family="sans-serif" font-size="14" lengthAdjust="spacing" textLength="25" x="266" y="26.5332">App</text><rect fill="#FF0000" height="31.6094" rx="2.5" ry="2.5" style="stroke:#181818;stroke-width:0.5;" width="39" x="259" y="238.7188"/><text fill="#000000" font-family="sans-serif" font-size="14" lengthAdjust="spacing" textLength="25" x="266" y="260.252">App</text><line style="stroke:#181818;stroke-width:1.0;" x1="166.5" x2="176.5" y1="69.9609" y2="65.9609"/><line style="stroke:#181818;stroke-width:1.0;" x1="166.5" x2="176.5" y1="69.9609" y2="73.9609"/><line style="stroke:#181818;stroke-width:1.0;" x1="165.5" x2="277.5" y1="69.9609" y2="69.9609"/><text fill="#000000" font-family="sans-serif" font-size="13" lengthAdjust="spacing" textLength="89" x="182.5" y="65.1045">update_request</text><polygon fill="#181818" points="153.5,96.3125,163.5,100.3125,153.5,104.3125,157.5,100.3125" style="stroke:#181818;stroke-width:1.0;"/><line style="stroke:#181818;stroke-width:1.0;" x1="42.5" x2="159.5" y1="100.3125" y2="100.3125"/><text fill="#000000" font-family="sans-serif" font-size="13" lengthAdjust="spacing" textLength="89" x="49.5" y="95.4561">sensor_request</text><line style="stroke:#181818;stroke-width:1.0;" x1="166.5" x2="176.5" y1="130.6641" y2="126.6641"/><line style="stroke:#181818;stroke-width:1.0;" x1="166.5" x2="176.5" y1="130.6641" y2="134.6641"/><line style="stroke:#181818;stroke-width:1.0;" x1="165.5" x2="277.5" y1="130.6641" y2="130.6641"/><text fill="#000000" font-family="sans-serif" font-size="13" lengthAdjust="spacing" textLength="89" x="182.5" y="125.8076">update_request</text><polygon fill="#181818" points="53.5,157.0156,43.5,161.0156,53.5,165.0156,49.5,161.0156" style="stroke:#181818;stroke-width:1.0;"/><line style="stroke:#181818;stroke-width:1.0;stroke-dasharray:2.0,2.0;" x1="47.5" x2="164.5" y1="161.0156" y2="161.0156"/><text fill="#000000" font-family="sans-serif" font-size="13" lengthAdjust="spacing" textLength="99" x="59.5" y="156.1592">sensor_response</text><line style="stroke:#181818;stroke-width:1.0;" x1="166.5" x2="176.5" y1="191.3672" y2="187.3672"/><line style="stroke:#181818;stroke-width:1.0;" x1="166.5" x2="176.5" y1="191.3672" y2="195.3672"/><line style="stroke:#181818;stroke-width:1.0;" x1="165.5" x2="277.5" y1="191.3672" y2="191.3672"/><text fill="#000000" font-family="sans-serif" font-size="13" lengthAdjust="spacing" textLength="89" x="182.5" y="186.5107">update_request</text><line style="stroke:#181818;stroke-width:1.0;" x1="166.5" x2="176.5" y1="221.7188" y2="217.7188"/><line style="stroke:#181818;stroke-width:1.0;" x1="166.5" x2="176.5" y1="221.7188" y2="225.7188"/><line style="stroke:#181818;stroke-width:1.0;" x1="165.5" x2="277.5" y1="221.7188" y2="221.7188"/><text fill="#000000" font-family="sans-serif" font-size="13" lengthAdjust="spacing" textLength="89" x="182.5" y="216.8623">update_request</text><!--MD5=[7c30bd671a720e4a18af7abcdd572377]
@startuml
participant Bibliothek #green
participant Kontrollanwendung #yellow
participant App #red

App ->> Kontrollanwendung: update_request 
Bibliothek -> Kontrollanwendung: sensor_request
App ->> Kontrollanwendung: update_request
Kontrollanwendung - -> Bibliothek: sensor_response
App ->> Kontrollanwendung: update_request 
App ->> Kontrollanwendung: update_request
@enduml

PlantUML version 1.2022.6(Tue Jun 21 19:34:49 CEST 2022)
(GPL source distribution)
Java Runtime: Java(TM) SE Runtime Environment
JVM: Java HotSpot(TM) 64-Bit Server VM
Default Encoding: Cp1252
Language: en
Country: US
--></g></svg>