<?xml version="1.0" encoding="UTF-8" standalone="no"?><svg xmlns="http://www.w3.org/2000/svg" xmlns:xlink="http://www.w3.org/1999/xlink" contentStyleType="text/css" height="215px" preserveAspectRatio="none" style="width:285px;height:215px;background:#FFFFFF;" version="1.1" viewBox="0 0 285 215" width="285px" zoomAndPan="magnify"><defs/><g><line style="stroke:#181818;stroke-width:0.5;stroke-dasharray:5.0,5.0;" x1="42" x2="42" y1="37.6094" y2="179.0156"/><line style="stroke:#181818;stroke-width:0.5;stroke-dasharray:5.0,5.0;" x1="157" x2="157" y1="37.6094" y2="179.0156"/><line style="stroke:#181818;stroke-width:0.5;stroke-dasharray:5.0,5.0;" x1="259" x2="259" y1="37.6094" y2="179.0156"/><rect fill="#008000" height="31.6094" rx="2.5" ry="2.5" style="stroke:#181818;stroke-width:0.5;" width="75" x="5" y="5"/><text fill="#000000" font-family="sans-serif" font-size="14" lengthAdjust="spacing" textLength="61" x="12" y="26.5332">Bibliothek</text><rect fill="#008000" height="31.6094" rx="2.5" ry="2.5" style="stroke:#181818;stroke-width:0.5;" width="75" x="5" y="178.0156"/><text fill="#000000" font-family="sans-serif" font-size="14" lengthAdjust="spacing" textLength="61" x="12" y="199.5488">Bibliothek</text><rect fill="#FFFF00" height="31.6094" rx="2.5" ry="2.5" style="stroke:#181818;stroke-width:0.5;" width="135" x="90" y="5"/><text fill="#000000" font-family="sans-serif" font-size="14" lengthAdjust="spacing" textLength="121" x="97" y="26.5332">Kontrollanwendung</text><rect fill="#FFFF00" height="31.6094" rx="2.5" ry="2.5" style="stroke:#181818;stroke-width:0.5;" width="135" x="90" y="178.0156"/><text fill="#000000" font-family="sans-serif" font-size="14" lengthAdjust="spacing" textLength="121" x="97" y="199.5488">Kontrollanwendung</text><rect fill="#FF0000" height="31.6094" rx="2.5" ry="2.5" style="stroke:#181818;stroke-width:0.5;" width="39" x="240" y="5"/><text fill="#000000" font-family="sans-serif" font-size="14" lengthAdjust="spacing" textLength="25" x="247" y="26.5332">App</text><rect fill="#FF0000" height="31.6094" rx="2.5" ry="2.5" style="stroke:#181818;stroke-width:0.5;" width="39" x="240" y="178.0156"/><text fill="#000000" font-family="sans-serif" font-size="14" lengthAdjust="spacing" textLength="25" x="247" y="199.5488">App</text><polygon fill="#181818" points="145.5,65.9609,155.5,69.9609,145.5,73.9609,149.5,69.9609" style="stroke:#181818;stroke-width:1.0;"/><line style="stroke:#181818;stroke-width:1.0;" x1="42.5" x2="151.5" y1="69.9609" y2="69.9609"/><text fill="#000000" font-family="sans-serif" font-size="13" lengthAdjust="spacing" textLength="68" x="49.5" y="65.1045">rpc_request</text><polygon fill="#181818" points="247.5,96.3125,257.5,100.3125,247.5,104.3125,251.5,100.3125" style="stroke:#181818;stroke-width:1.0;"/><line style="stroke:#181818;stroke-width:1.0;" x1="157.5" x2="253.5" y1="100.3125" y2="100.3125"/><text fill="#000000" font-family="sans-serif" font-size="13" lengthAdjust="spacing" textLength="68" x="164.5" y="95.4561">rpc_request</text><polygon fill="#808080" points="168.5,126.6641,158.5,130.6641,168.5,134.6641,164.5,130.6641" style="stroke:#808080;stroke-width:1.0;"/><line style="stroke:#808080;stroke-width:1.0;stroke-dasharray:2.0,2.0;" x1="162.5" x2="258.5" y1="130.6641" y2="130.6641"/><text fill="#000000" font-family="sans-serif" font-size="13" lengthAdjust="spacing" textLength="78" x="174.5" y="125.8076">rpc_response</text><polygon fill="#808080" points="53.5,157.0156,43.5,161.0156,53.5,165.0156,49.5,161.0156" style="stroke:#808080;stroke-width:1.0;"/><line style="stroke:#808080;stroke-width:1.0;stroke-dasharray:2.0,2.0;" x1="47.5" x2="156.5" y1="161.0156" y2="161.0156"/><text fill="#000000" font-family="sans-serif" font-size="13" lengthAdjust="spacing" textLength="78" x="59.5" y="156.1592">rpc_response</text><!--MD5=[6a09a38262b1fa42be65e7272f4f8617]
@startuml
participant Bibliothek #green
participant Kontrollanwendung #yellow
participant App #red

Bibliothek -> Kontrollanwendung: rpc_request
Kontrollanwendung -> App: rpc_request
App -[#grey]-> Kontrollanwendung: rpc_response
Kontrollanwendung -[#grey]-> Bibliothek: rpc_response 

@enduml

PlantUML version 1.2022.6(Tue Jun 21 19:34:49 CEST 2022)
(GPL source distribution)
Java Runtime: Java(TM) SE Runtime Environment
JVM: Java HotSpot(TM) 64-Bit Server VM
Default Encoding: Cp1252
Language: en
Country: US
--></g></svg>