<?xml version="1.0" encoding="UTF-8" standalone="no"?><svg xmlns="http://www.w3.org/2000/svg" xmlns:xlink="http://www.w3.org/1999/xlink" contentStyleType="text/css" height="470px" preserveAspectRatio="none" style="width:547px;height:470px;background:#FFFFFF;" version="1.1" viewBox="0 0 547 470" width="547px" zoomAndPan="magnify"><defs/><g><!--MD5=[98a1666744ca2f19e53bc0a5ce4a81cb]
entity sel--><g id="elem_sel"><rect fill="#F1F1F1" height="55.2188" rx="2.5" ry="2.5" style="stroke:#181818;stroke-width:0.5;" width="107" x="203" y="140"/><text fill="#000000" font-family="sans-serif" font-size="14" lengthAdjust="spacing" textLength="45" x="213" y="164.5332">Sensor</text><text fill="#000000" font-family="sans-serif" font-size="14" lengthAdjust="spacing" textLength="87" x="213" y="182.1426">EventListener</text></g><!--MD5=[f0715c235c5bafd934bc22daae88e70b]
entity selc--><g id="elem_selc"><rect fill="#F1F1F1" height="55.2188" rx="2.5" ry="2.5" style="stroke:#181818;stroke-width:0.5;" width="152" x="180.5" y="7"/><text fill="#000000" font-family="sans-serif" font-size="14" lengthAdjust="spacing" textLength="132" x="190.5" y="31.5332">SensorEventListener</text><text fill="#000000" font-family="sans-serif" font-size="14" lengthAdjust="spacing" textLength="62" x="190.5" y="49.1426">Container</text></g><!--MD5=[e939ca035ac17cd9107982b10cc3bb97]
entity callback--><g id="elem_callback"><ellipse cx="256.5" cy="309.5" fill="#F1F1F1" rx="8" ry="8" style="stroke:#181818;stroke-width:0.5;"/><text fill="#000000" font-family="sans-serif" font-size="14" lengthAdjust="spacing" textLength="119" x="197" y="341.0332">onSensorChanged</text></g><!--MD5=[9a3b67cab34e987249ec89c89db6d31b]
entity jmw--><g id="elem_jmw"><rect fill="#F1F1F1" height="72.8281" rx="2.5" ry="2.5" style="stroke:#181818;stroke-width:0.5;" width="77" x="7" y="273"/><text fill="#000000" font-family="sans-serif" font-size="14" lengthAdjust="spacing" textLength="35" x="17" y="297.5332">JSON</text><text fill="#000000" font-family="sans-serif" font-size="14" lengthAdjust="spacing" textLength="57" x="17" y="315.1426">Message</text><text fill="#000000" font-family="sans-serif" font-size="14" lengthAdjust="spacing" textLength="55" x="17" y="332.752">Wrapper</text></g><!--MD5=[c5d11c0b53c10b1d2c1bf834d35d74f9]
entity ms--><g id="elem_ms"><rect fill="#F1F1F1" height="37.6094" rx="2.5" ry="2.5" style="stroke:#181818;stroke-width:0.5;" width="112" x="422.5" y="290.5"/><text fill="#000000" font-family="sans-serif" font-size="14" lengthAdjust="spacing" textLength="92" x="432.5" y="315.0332">MQTT-Service</text></g><!--MD5=[7c31de3ec12a3935d139f388f86a067b]
entity mb--><g id="elem_mb"><path d="M428.5152,416.2712 C432.4708,409.5262 437.5857,408.117 442.4758,415.3372 C445.0501,408.9331 451.1186,407.9418 454.7301,414.3448 C457.1437,406.3748 461.963,405.4202 467.7918,411.0694 C471.8101,404.072 476.1109,405.1875 480.5057,410.6863 C484.5573,405.3842 489.962,406.1164 492.123,412.5568 C496.1316,406.111 502.2194,407.2877 504.6941,414.0199 C508.1702,409.2049 513.1458,408.6174 516.4307,414.2351 C520.9289,408.8262 525.5803,409.0254 529.3053,415.1018 C537.5544,418.2283 540.1549,426.9314 532.6336,432.9919 C538.7438,438.6033 537.2971,445.3274 530.0264,448.7208 C526.8146,455.1738 521.6868,455.2727 517.1221,450.2409 C513.3209,455.6905 509.4285,456.326 504.5994,451.4926 C502.7462,457.6894 497.2475,458.9824 492.7151,454.4642 C490.4968,460.7356 485.3419,463.442 479.9906,457.8145 C473.983,462.2601 468.6935,462.1059 466.0235,454.0775 C461.724,458.3844 457.3468,457.3862 455.0756,451.8269 C449.7409,456.9328 445.8617,456.2055 442.6783,449.5578 C439.0371,454.6086 432.6532,454.3289 429.6994,448.7208 C421.8891,444.5429 419.9527,437.7709 428.1483,432.0994 C420.948,426.4515 421.8801,421.5985 428.5152,416.2712 " fill="#F1F1F1" style="stroke:#181818;stroke-width:0.5;"/><text fill="#000000" font-family="sans-serif" font-size="14" lengthAdjust="spacing" textLength="87" x="435" y="436.5332">MQTT-Broker</text></g><!--MD5=[c6ecb6f6e60fd6df8e7b90fb2547fb8a]
link selc to sel--><g id="link_selc_sel"><path d="M256.5,62.01 C256.5,82.91 256.5,112.14 256.5,134.38 " fill="none" id="selc-to-sel" style="stroke:#181818;stroke-width:1.0;"/><polygon fill="#181818" points="256.5,139.58,260.5,130.58,256.5,134.58,252.5,130.58,256.5,139.58" style="stroke:#181818;stroke-width:1.0;"/><text fill="#000000" font-family="sans-serif" font-size="13" lengthAdjust="spacing" textLength="37" x="257.5" y="106.4951">startet</text></g><!--MD5=[a9df6002dc8134e088ccbe8c1f296303]
link sel to callback--><g id="link_sel_callback"><path d="M256.5,195.16 C256.5,225 256.5,272.16 256.5,295.1 " fill="none" id="sel-to-callback" style="stroke:#181818;stroke-width:1.0;"/><polygon fill="#181818" points="256.5,300.38,260.5,291.38,256.5,295.38,252.5,291.38,256.5,300.38" style="stroke:#181818;stroke-width:1.0;"/><text fill="#000000" font-family="sans-serif" font-size="13" lengthAdjust="spacing" textLength="56" x="257.5" y="239.4951">wartet auf</text></g><!--MD5=[15c5047efcb4568f686050fdf08e7c9a]
link jmw to callback--><g id="link_jmw_callback"><path d="M89.34,309.5 C137.25,309.5 211.3,309.5 242.2,309.5 " fill="none" id="jmw-callback" style="stroke:#181818;stroke-width:1.0;"/><polygon fill="#181818" points="247.45,309.5,238.45,305.5,242.45,309.5,238.45,313.5,247.45,309.5" style="stroke:#181818;stroke-width:1.0;"/><polygon fill="#181818" points="84.2,309.5,93.2,313.5,89.2,309.5,93.2,305.5,84.2,309.5" style="stroke:#181818;stroke-width:1.0;"/><text fill="#000000" font-family="sans-serif" font-size="13" lengthAdjust="spacing" textLength="127" x="102.25" y="302.9951">(1) Vorlage generieren</text></g><!--MD5=[4f5f7dcdd9cff3b6054e03ac93ee6caa]
link callback to ms--><g id="link_callback_ms"><path d="M265.76,309.5 C291.2,309.5 363.82,309.5 417.16,309.5 " fill="none" id="callback-to-ms" style="stroke:#181818;stroke-width:1.0;"/><polygon fill="#181818" points="422.26,309.5,413.26,305.5,417.26,309.5,413.26,313.5,422.26,309.5" style="stroke:#181818;stroke-width:1.0;"/><text fill="#000000" font-family="sans-serif" font-size="13" lengthAdjust="spacing" textLength="120" x="284" y="302.9951">(2) Nachricht senden</text></g><!--MD5=[9fc8cb28f1ae5af8fb552dd8909ef642]
link ms to mb--><g id="link_ms_mb"><path d="M478.5,328.65 C478.5,347.99 478.5,378.88 478.5,401.48 " fill="none" id="ms-to-mb" style="stroke:#181818;stroke-width:1.0;"/><polygon fill="#181818" points="478.5,406.75,482.5,397.75,478.5,401.75,474.5,397.75,478.5,406.75" style="stroke:#181818;stroke-width:1.0;"/></g><!--MD5=[3d3e8a821efdf0372e817e8613e6f8a1]
@startuml

skinparam componentStyle rectangle

component sel [Sensor
EventListener]
component selc [SensorEventListener
Container]
interface onSensorChanged as callback
component jmw [JSON
Message
Wrapper]
component [MQTT-Service] as ms
cloud "MQTT-Broker" as mb

selc -down-> sel: startet
sel -down-> callback : wartet auf
callback <-left-> jmw : (1) Vorlage generieren
callback -right-> ms : (2) Nachricht senden
ms -down-> mb



@enduml

PlantUML version 1.2022.6(Tue Jun 21 19:34:49 CEST 2022)
(GPL source distribution)
Java Runtime: Java(TM) SE Runtime Environment
JVM: Java HotSpot(TM) 64-Bit Server VM
Default Encoding: Cp1252
Language: en
Country: US
--></g></svg>