<?xml version="1.0" encoding="UTF-8" standalone="no"?><svg xmlns="http://www.w3.org/2000/svg" xmlns:xlink="http://www.w3.org/1999/xlink" contentStyleType="text/css" height="250px" preserveAspectRatio="none" style="width:723px;height:250px;background:#FFFFFF;" version="1.1" viewBox="0 0 723 250" width="723px" zoomAndPan="magnify"><defs/><g><!--MD5=[c60af77fe5573b84a4aa4bce89659574]
class Server--><g id="elem_Server"><rect fill="#F1F1F1" height="32" id="Server" rx="2.5" ry="2.5" style="stroke:#181818;stroke-width:0.5;" width="76" x="320" y="7"/><ellipse cx="335" cy="23" fill="#ADD1B2" rx="11" ry="11" style="stroke:#181818;stroke-width:1.0;"/><path d="M337.9688,28.6406 Q337.3906,28.9375 336.75,29.0781 Q336.1094,29.2344 335.4063,29.2344 Q332.9063,29.2344 331.5781,27.5938 Q330.2656,25.9375 330.2656,22.8125 Q330.2656,19.6875 331.5781,18.0313 Q332.9063,16.375 335.4063,16.375 Q336.1094,16.375 336.75,16.5313 Q337.4063,16.6875 337.9688,16.9844 L337.9688,19.7031 Q337.3438,19.125 336.75,18.8594 Q336.1563,18.5781 335.5313,18.5781 Q334.1875,18.5781 333.5,19.6563 Q332.8125,20.7188 332.8125,22.8125 Q332.8125,24.9063 333.5,25.9844 Q334.1875,27.0469 335.5313,27.0469 Q336.1563,27.0469 336.75,26.7813 Q337.3438,26.5 337.9688,25.9219 L337.9688,28.6406 Z " fill="#000000"/><text fill="#000000" font-family="sans-serif" font-size="14" lengthAdjust="spacing" textLength="44" x="349" y="27.8467">Server</text></g><!--MD5=[44d409dc49ba233bb7efc9117954cdf7]
class Mqtt\nHandlerThread--><g id="elem_Mqtt\nHandlerThread"><rect fill="#F1F1F1" height="42.5938" id="Mqtt\nHandlerThread" rx="2.5" ry="2.5" style="stroke:#181818;stroke-width:0.5;" width="134" x="130" y="99"/><ellipse cx="145" cy="120.2969" fill="#ADD1B2" rx="11" ry="11" style="stroke:#181818;stroke-width:1.0;"/><path d="M147.9688,125.9375 Q147.3906,126.2344 146.75,126.375 Q146.1094,126.5313 145.4063,126.5313 Q142.9063,126.5313 141.5781,124.8906 Q140.2656,123.2344 140.2656,120.1094 Q140.2656,116.9844 141.5781,115.3281 Q142.9063,113.6719 145.4063,113.6719 Q146.1094,113.6719 146.75,113.8281 Q147.4063,113.9844 147.9688,114.2813 L147.9688,117 Q147.3438,116.4219 146.75,116.1563 Q146.1563,115.875 145.5313,115.875 Q144.1875,115.875 143.5,116.9531 Q142.8125,118.0156 142.8125,120.1094 Q142.8125,122.2031 143.5,123.2813 Q144.1875,124.3438 145.5313,124.3438 Q146.1563,124.3438 146.75,124.0781 Q147.3438,123.7969 147.9688,123.2188 L147.9688,125.9375 Z " fill="#000000"/><text fill="#000000" font-family="sans-serif" font-size="14" lengthAdjust="spacing" textLength="31" x="194.5" y="116.9951">Mqtt</text><text fill="#000000" font-family="sans-serif" font-size="14" lengthAdjust="spacing" textLength="102" x="159" y="133.292">HandlerThread</text></g><!--MD5=[4b2d61224b33971326a22fe5d809d926]
class DataHandler--><g id="elem_DataHandler"><rect fill="#F1F1F1" height="32" id="DataHandler" rx="2.5" ry="2.5" style="stroke:#181818;stroke-width:0.5;" width="117" x="299.5" y="104.5"/><ellipse cx="314.5" cy="120.5" fill="#ADD1B2" rx="11" ry="11" style="stroke:#181818;stroke-width:1.0;"/><path d="M317.4688,126.1406 Q316.8906,126.4375 316.25,126.5781 Q315.6094,126.7344 314.9063,126.7344 Q312.4063,126.7344 311.0781,125.0938 Q309.7656,123.4375 309.7656,120.3125 Q309.7656,117.1875 311.0781,115.5313 Q312.4063,113.875 314.9063,113.875 Q315.6094,113.875 316.25,114.0313 Q316.9063,114.1875 317.4688,114.4844 L317.4688,117.2031 Q316.8438,116.625 316.25,116.3594 Q315.6563,116.0781 315.0313,116.0781 Q313.6875,116.0781 313,117.1563 Q312.3125,118.2188 312.3125,120.3125 Q312.3125,122.4063 313,123.4844 Q313.6875,124.5469 315.0313,124.5469 Q315.6563,124.5469 316.25,124.2813 Q316.8438,124 317.4688,123.4219 L317.4688,126.1406 Z " fill="#000000"/><text fill="#000000" font-family="sans-serif" font-size="14" lengthAdjust="spacing" textLength="85" x="328.5" y="125.3467">DataHandler</text></g><!--MD5=[7d922837a98449bbc8aef48cc2382ac6]
class SensorDB--><g id="elem_SensorDB"><rect fill="#F1F1F1" height="32" id="SensorDB" rx="2.5" ry="2.5" style="stroke:#181818;stroke-width:0.5;" width="102" x="452" y="104.5"/><ellipse cx="467" cy="120.5" fill="#ADD1B2" rx="11" ry="11" style="stroke:#181818;stroke-width:1.0;"/><path d="M469.9688,126.1406 Q469.3906,126.4375 468.75,126.5781 Q468.1094,126.7344 467.4063,126.7344 Q464.9063,126.7344 463.5781,125.0938 Q462.2656,123.4375 462.2656,120.3125 Q462.2656,117.1875 463.5781,115.5313 Q464.9063,113.875 467.4063,113.875 Q468.1094,113.875 468.75,114.0313 Q469.4063,114.1875 469.9688,114.4844 L469.9688,117.2031 Q469.3438,116.625 468.75,116.3594 Q468.1563,116.0781 467.5313,116.0781 Q466.1875,116.0781 465.5,117.1563 Q464.8125,118.2188 464.8125,120.3125 Q464.8125,122.4063 465.5,123.4844 Q466.1875,124.5469 467.5313,124.5469 Q468.1563,124.5469 468.75,124.2813 Q469.3438,124 469.9688,123.4219 L469.9688,126.1406 Z " fill="#000000"/><text fill="#000000" font-family="sans-serif" font-size="14" lengthAdjust="spacing" textLength="70" x="481" y="125.3467">SensorDB</text></g><!--MD5=[685100c0a641611b6a0c9acd51249dce]
class Mqtt\nRequestHandler--><g id="elem_Mqtt\nRequestHandler"><rect fill="#F1F1F1" height="42.5938" id="Mqtt\nRequestHandler" rx="2.5" ry="2.5" style="stroke:#181818;stroke-width:0.5;" width="144" x="7" y="202"/><ellipse cx="22" cy="223.2969" fill="#ADD1B2" rx="11" ry="11" style="stroke:#181818;stroke-width:1.0;"/><path d="M24.9688,228.9375 Q24.3906,229.2344 23.75,229.375 Q23.1094,229.5313 22.4063,229.5313 Q19.9063,229.5313 18.5781,227.8906 Q17.2656,226.2344 17.2656,223.1094 Q17.2656,219.9844 18.5781,218.3281 Q19.9063,216.6719 22.4063,216.6719 Q23.1094,216.6719 23.75,216.8281 Q24.4063,216.9844 24.9688,217.2813 L24.9688,220 Q24.3438,219.4219 23.75,219.1563 Q23.1563,218.875 22.5313,218.875 Q21.1875,218.875 20.5,219.9531 Q19.8125,221.0156 19.8125,223.1094 Q19.8125,225.2031 20.5,226.2813 Q21.1875,227.3438 22.5313,227.3438 Q23.1563,227.3438 23.75,227.0781 Q24.3438,226.7969 24.9688,226.2188 L24.9688,228.9375 Z " fill="#000000"/><text fill="#000000" font-family="sans-serif" font-size="14" lengthAdjust="spacing" textLength="31" x="76.5" y="219.9951">Mqtt</text><text fill="#000000" font-family="sans-serif" font-size="14" lengthAdjust="spacing" textLength="112" x="36" y="236.292">RequestHandler</text></g><!--MD5=[3e81ff25ae4b850389372d03dbcdc14e]
class UDP\nRequestHandler--><g id="elem_UDP\nRequestHandler"><rect fill="#F1F1F1" height="42.5938" id="UDP\nRequestHandler" rx="2.5" ry="2.5" style="stroke:#181818;stroke-width:0.5;" width="144" x="186" y="202"/><ellipse cx="201" cy="223.2969" fill="#ADD1B2" rx="11" ry="11" style="stroke:#181818;stroke-width:1.0;"/><path d="M203.9688,228.9375 Q203.3906,229.2344 202.75,229.375 Q202.1094,229.5313 201.4063,229.5313 Q198.9063,229.5313 197.5781,227.8906 Q196.2656,226.2344 196.2656,223.1094 Q196.2656,219.9844 197.5781,218.3281 Q198.9063,216.6719 201.4063,216.6719 Q202.1094,216.6719 202.75,216.8281 Q203.4063,216.9844 203.9688,217.2813 L203.9688,220 Q203.3438,219.4219 202.75,219.1563 Q202.1563,218.875 201.5313,218.875 Q200.1875,218.875 199.5,219.9531 Q198.8125,221.0156 198.8125,223.1094 Q198.8125,225.2031 199.5,226.2813 Q200.1875,227.3438 201.5313,227.3438 Q202.1563,227.3438 202.75,227.0781 Q203.3438,226.7969 203.9688,226.2188 L203.9688,228.9375 Z " fill="#000000"/><text fill="#000000" font-family="sans-serif" font-size="14" lengthAdjust="spacing" textLength="30" x="256" y="219.9951">UDP</text><text fill="#000000" font-family="sans-serif" font-size="14" lengthAdjust="spacing" textLength="112" x="215" y="236.292">RequestHandler</text></g><!--MD5=[880955150e6a2607d724edf310c058ad]
class UDP\nRequestQueueWorker--><g id="elem_UDP\nRequestQueueWorker"><rect fill="#F1F1F1" height="42.5938" id="UDP\nRequestQueueWorker" rx="2.5" ry="2.5" style="stroke:#181818;stroke-width:0.5;" width="187" x="365.5" y="202"/><ellipse cx="380.5" cy="223.2969" fill="#ADD1B2" rx="11" ry="11" style="stroke:#181818;stroke-width:1.0;"/><path d="M383.4688,228.9375 Q382.8906,229.2344 382.25,229.375 Q381.6094,229.5313 380.9063,229.5313 Q378.4063,229.5313 377.0781,227.8906 Q375.7656,226.2344 375.7656,223.1094 Q375.7656,219.9844 377.0781,218.3281 Q378.4063,216.6719 380.9063,216.6719 Q381.6094,216.6719 382.25,216.8281 Q382.9063,216.9844 383.4688,217.2813 L383.4688,220 Q382.8438,219.4219 382.25,219.1563 Q381.6563,218.875 381.0313,218.875 Q379.6875,218.875 379,219.9531 Q378.3125,221.0156 378.3125,223.1094 Q378.3125,225.2031 379,226.2813 Q379.6875,227.3438 381.0313,227.3438 Q381.6563,227.3438 382.25,227.0781 Q382.8438,226.7969 383.4688,226.2188 L383.4688,228.9375 Z " fill="#000000"/><text fill="#000000" font-family="sans-serif" font-size="14" lengthAdjust="spacing" textLength="30" x="457" y="219.9951">UDP</text><text fill="#000000" font-family="sans-serif" font-size="14" lengthAdjust="spacing" textLength="155" x="394.5" y="236.292">RequestQueueWorker</text></g><!--MD5=[b0a3344693eafd32c471c819138f4959]
class Answer\nQueueWorker--><g id="elem_Answer\nQueueWorker"><rect fill="#F1F1F1" height="42.5938" id="Answer\nQueueWorker" rx="2.5" ry="2.5" style="stroke:#181818;stroke-width:0.5;" width="128" x="588" y="202"/><ellipse cx="603" cy="223.2969" fill="#ADD1B2" rx="11" ry="11" style="stroke:#181818;stroke-width:1.0;"/><path d="M605.9688,228.9375 Q605.3906,229.2344 604.75,229.375 Q604.1094,229.5313 603.4063,229.5313 Q600.9063,229.5313 599.5781,227.8906 Q598.2656,226.2344 598.2656,223.1094 Q598.2656,219.9844 599.5781,218.3281 Q600.9063,216.6719 603.4063,216.6719 Q604.1094,216.6719 604.75,216.8281 Q605.4063,216.9844 605.9688,217.2813 L605.9688,220 Q605.3438,219.4219 604.75,219.1563 Q604.1563,218.875 603.5313,218.875 Q602.1875,218.875 601.5,219.9531 Q600.8125,221.0156 600.8125,223.1094 Q600.8125,225.2031 601.5,226.2813 Q602.1875,227.3438 603.5313,227.3438 Q604.1563,227.3438 604.75,227.0781 Q605.3438,226.7969 605.9688,226.2188 L605.9688,228.9375 Z " fill="#000000"/><text fill="#000000" font-family="sans-serif" font-size="14" lengthAdjust="spacing" textLength="51" x="639.5" y="219.9951">Answer</text><text fill="#000000" font-family="sans-serif" font-size="14" lengthAdjust="spacing" textLength="96" x="617" y="236.292">QueueWorker</text></g><!--MD5=[ad5ec2f03c6ab179768b9ca25e8affed]
reverse link Server to Mqtt\nHandlerThread--><g id="link_Server_Mqtt\nHandlerThread"><path codeLine="1" d="M321.22,45.81 C294.32,61.77 258.07,83.27 231.68,98.93 " fill="none" id="Server-backto-Mqtt\nHandlerThread" style="stroke:#181818;stroke-width:1.0;"/><polygon fill="#181818" points="332.49,39.13,325.289,38.7476,322.1665,45.2476,329.3675,45.63,332.49,39.13" style="stroke:#181818;stroke-width:1.0;"/></g><!--MD5=[9efb19c4c5d7da7940cd967c7a5209db]
reverse link Server to DataHandler--><g id="link_Server_DataHandler"><path codeLine="2" d="M358,52.44 C358,69.4 358,90.28 358,104.19 " fill="none" id="Server-backto-DataHandler" style="stroke:#181818;stroke-width:1.0;"/><polygon fill="#181818" points="358,39.34,354,45.34,358,51.34,362,45.34,358,39.34" style="stroke:#181818;stroke-width:1.0;"/></g><!--MD5=[8b455c6511f679ff2fe423af2dc17aeb]
reverse link Server to SensorDB--><g id="link_Server_SensorDB"><path codeLine="3" d="M391.92,46.34 C419.07,64.22 456.42,88.82 480.13,104.44 " fill="none" id="Server-backto-SensorDB" style="stroke:#181818;stroke-width:1.0;"/><polygon fill="#181818" points="380.98,39.13,383.7879,45.7719,390.9989,45.7346,388.191,39.0926,380.98,39.13" style="stroke:#181818;stroke-width:1.0;"/></g><!--MD5=[035fc301a580003149c417c3cdcc142d]
reverse link DataHandler to Mqtt\nRequestHandler--><g id="link_DataHandler_Mqtt\nRequestHandler"><path codeLine="4" d="M304.13,141 C255.74,158.52 184.93,184.15 135.69,201.98 " fill="none" id="DataHandler-backto-Mqtt\nRequestHandler" style="stroke:#181818;stroke-width:1.0;"/><polygon fill="#181818" points="316.53,136.51,309.5265,134.7921,305.2471,140.5961,312.2506,142.314,316.53,136.51" style="stroke:#181818;stroke-width:1.0;"/></g><!--MD5=[755f3f1b599691c4ccbc94d0dd50d83b]
reverse link DataHandler to UDP\nRequestHandler--><g id="link_DataHandler_UDP\nRequestHandler"><path codeLine="5" d="M333.58,146.17 C316.7,163.21 294.51,185.62 278.54,201.75 " fill="none" id="DataHandler-backto-UDP\nRequestHandler" style="stroke:#181818;stroke-width:1.0;"/><polygon fill="#181818" points="342.81,136.84,335.7467,138.2927,334.371,145.3713,341.4343,143.9187,342.81,136.84" style="stroke:#181818;stroke-width:1.0;"/></g><!--MD5=[a64d7de201d769d7854bd0fa1d8c44b6]
reverse link DataHandler to UDP\nRequestQueueWorker--><g id="link_DataHandler_UDP\nRequestQueueWorker"><path codeLine="6" d="M382.67,146.17 C399.71,163.21 422.12,185.62 438.25,201.75 " fill="none" id="DataHandler-backto-UDP\nRequestQueueWorker" style="stroke:#181818;stroke-width:1.0;"/><polygon fill="#181818" points="373.34,136.84,374.7542,143.9111,381.8253,145.3253,380.4111,138.2542,373.34,136.84" style="stroke:#181818;stroke-width:1.0;"/></g><!--MD5=[da4d7372ee35804aa9db00f54e52c897]
reverse link DataHandler to Answer\nQueueWorker--><g id="link_DataHandler_Answer\nQueueWorker"><path codeLine="7" d="M414.12,140.78 C465.13,158.3 540.16,184.08 592.26,201.98 " fill="none" id="DataHandler-backto-Answer\nQueueWorker" style="stroke:#181818;stroke-width:1.0;"/><polygon fill="#181818" points="401.7,136.51,406.0736,142.2434,413.0481,140.4113,408.6745,134.678,401.7,136.51" style="stroke:#181818;stroke-width:1.0;"/></g><!--MD5=[83ca4e8e52bc87c935759715c3cee6e6]
@startuml
Server *- - "Mqtt\nHandlerThread"
Server *- - DataHandler
Server *- - SensorDB
DataHandler *- - Mqtt\nRequestHandler
DataHandler *- - UDP\nRequestHandler
DataHandler *- - UDP\nRequestQueueWorker
DataHandler *- - Answer\nQueueWorker
hide members
@enduml

PlantUML version 1.2022.6(Tue Jun 21 19:34:49 CEST 2022)
(GPL source distribution)
Java Runtime: OpenJDK Runtime Environment
JVM: OpenJDK 64-Bit Server VM
Default Encoding: UTF-8
Language: de
Country: DE
--></g></svg>