<?xml version="1.0" encoding="UTF-8" standalone="no"?><svg xmlns="http://www.w3.org/2000/svg" xmlns:xlink="http://www.w3.org/1999/xlink" contentStyleType="text/css" height="250px" preserveAspectRatio="none" style="width:731px;height:250px;background:#FFFFFF;" version="1.1" viewBox="0 0 731 250" width="731px" zoomAndPan="magnify"><defs/><g><!--MD5=[c60af77fe5573b84a4aa4bce89659574]
class Server--><g id="elem_Server"><rect fill="#F1F1F1" height="32" id="Server" rx="2.5" ry="2.5" style="stroke:#181818;stroke-width:0.5;" width="79" x="322.5" y="7"/><ellipse cx="337.5" cy="23" fill="#ADD1B2" rx="11" ry="11" style="stroke:#181818;stroke-width:1.0;"/><path d="M339.8438,18.6719 C338.9063,18.2344 338.3125,18.0938 337.4375,18.0938 C334.8125,18.0938 332.8125,20.1719 332.8125,22.8906 L332.8125,24.0156 C332.8125,26.5938 334.9219,28.4844 337.8125,28.4844 C339.0313,28.4844 340.1875,28.1875 340.9375,27.6406 C341.5156,27.2344 341.8438,26.7813 341.8438,26.3906 C341.8438,25.9375 341.4531,25.5469 340.9844,25.5469 C340.7656,25.5469 340.5625,25.625 340.375,25.8125 C339.9219,26.2969 339.9219,26.2969 339.7344,26.3906 C339.3125,26.6563 338.625,26.7813 337.8594,26.7813 C335.8125,26.7813 334.5156,25.6875 334.5156,23.9844 L334.5156,22.8906 C334.5156,21.1094 335.7656,19.7969 337.5,19.7969 C338.0781,19.7969 338.6875,19.9531 339.1563,20.2031 C339.6406,20.4844 339.8125,20.7031 339.9063,21.1094 C339.9688,21.5156 340,21.6406 340.1406,21.7656 C340.2813,21.9063 340.5156,22.0156 340.7344,22.0156 C341,22.0156 341.2656,21.875 341.4375,21.6563 C341.5469,21.5 341.5781,21.3125 341.5781,20.8906 L341.5781,19.4688 C341.5781,19.0313 341.5625,18.9063 341.4688,18.75 C341.3125,18.4844 341.0313,18.3438 340.7344,18.3438 C340.4375,18.3438 340.2344,18.4375 340.0156,18.75 L339.8438,18.6719 Z " fill="#000000"/><text fill="#000000" font-family="sans-serif" font-size="14" lengthAdjust="spacing" textLength="47" x="351.5" y="27.8467">Server</text></g><!--MD5=[44d409dc49ba233bb7efc9117954cdf7]
class Mqtt\nHandlerThread--><g id="elem_Mqtt\nHandlerThread"><rect fill="#F1F1F1" height="42.5938" id="Mqtt\nHandlerThread" rx="2.5" ry="2.5" style="stroke:#181818;stroke-width:0.5;" width="137" x="129.5" y="99"/><ellipse cx="144.5" cy="120.2969" fill="#ADD1B2" rx="11" ry="11" style="stroke:#181818;stroke-width:1.0;"/><path d="M146.8438,115.9688 C145.9063,115.5313 145.3125,115.3906 144.4375,115.3906 C141.8125,115.3906 139.8125,117.4688 139.8125,120.1875 L139.8125,121.3125 C139.8125,123.8906 141.9219,125.7813 144.8125,125.7813 C146.0313,125.7813 147.1875,125.4844 147.9375,124.9375 C148.5156,124.5313 148.8438,124.0781 148.8438,123.6875 C148.8438,123.2344 148.4531,122.8438 147.9844,122.8438 C147.7656,122.8438 147.5625,122.9219 147.375,123.1094 C146.9219,123.5938 146.9219,123.5938 146.7344,123.6875 C146.3125,123.9531 145.625,124.0781 144.8594,124.0781 C142.8125,124.0781 141.5156,122.9844 141.5156,121.2813 L141.5156,120.1875 C141.5156,118.4063 142.7656,117.0938 144.5,117.0938 C145.0781,117.0938 145.6875,117.25 146.1563,117.5 C146.6406,117.7813 146.8125,118 146.9063,118.4063 C146.9688,118.8125 147,118.9375 147.1406,119.0625 C147.2813,119.2031 147.5156,119.3125 147.7344,119.3125 C148,119.3125 148.2656,119.1719 148.4375,118.9531 C148.5469,118.7969 148.5781,118.6094 148.5781,118.1875 L148.5781,116.7656 C148.5781,116.3281 148.5625,116.2031 148.4688,116.0469 C148.3125,115.7813 148.0313,115.6406 147.7344,115.6406 C147.4375,115.6406 147.2344,115.7344 147.0156,116.0469 L146.8438,115.9688 Z " fill="#000000"/><text fill="#000000" font-family="sans-serif" font-size="14" lengthAdjust="spacing" textLength="35" x="193.5" y="116.9951">Mqtt</text><text fill="#000000" font-family="sans-serif" font-size="14" lengthAdjust="spacing" textLength="105" x="158.5" y="133.292">HandlerThread</text></g><!--MD5=[4b2d61224b33971326a22fe5d809d926]
class DataHandler--><g id="elem_DataHandler"><rect fill="#F1F1F1" height="32" id="DataHandler" rx="2.5" ry="2.5" style="stroke:#181818;stroke-width:0.5;" width="121" x="301.5" y="104.5"/><ellipse cx="316.5" cy="120.5" fill="#ADD1B2" rx="11" ry="11" style="stroke:#181818;stroke-width:1.0;"/><path d="M318.8438,116.1719 C317.9063,115.7344 317.3125,115.5938 316.4375,115.5938 C313.8125,115.5938 311.8125,117.6719 311.8125,120.3906 L311.8125,121.5156 C311.8125,124.0938 313.9219,125.9844 316.8125,125.9844 C318.0313,125.9844 319.1875,125.6875 319.9375,125.1406 C320.5156,124.7344 320.8438,124.2813 320.8438,123.8906 C320.8438,123.4375 320.4531,123.0469 319.9844,123.0469 C319.7656,123.0469 319.5625,123.125 319.375,123.3125 C318.9219,123.7969 318.9219,123.7969 318.7344,123.8906 C318.3125,124.1563 317.625,124.2813 316.8594,124.2813 C314.8125,124.2813 313.5156,123.1875 313.5156,121.4844 L313.5156,120.3906 C313.5156,118.6094 314.7656,117.2969 316.5,117.2969 C317.0781,117.2969 317.6875,117.4531 318.1563,117.7031 C318.6406,117.9844 318.8125,118.2031 318.9063,118.6094 C318.9688,119.0156 319,119.1406 319.1406,119.2656 C319.2813,119.4063 319.5156,119.5156 319.7344,119.5156 C320,119.5156 320.2656,119.375 320.4375,119.1563 C320.5469,119 320.5781,118.8125 320.5781,118.3906 L320.5781,116.9688 C320.5781,116.5313 320.5625,116.4063 320.4688,116.25 C320.3125,115.9844 320.0313,115.8438 319.7344,115.8438 C319.4375,115.8438 319.2344,115.9375 319.0156,116.25 L318.8438,116.1719 Z " fill="#000000"/><text fill="#000000" font-family="sans-serif" font-size="14" lengthAdjust="spacing" textLength="89" x="330.5" y="125.3467">DataHandler</text></g><!--MD5=[7d922837a98449bbc8aef48cc2382ac6]
class SensorDB--><g id="elem_SensorDB"><rect fill="#F1F1F1" height="32" id="SensorDB" rx="2.5" ry="2.5" style="stroke:#181818;stroke-width:0.5;" width="102" x="458" y="104.5"/><ellipse cx="473" cy="120.5" fill="#ADD1B2" rx="11" ry="11" style="stroke:#181818;stroke-width:1.0;"/><path d="M475.3438,116.1719 C474.4063,115.7344 473.8125,115.5938 472.9375,115.5938 C470.3125,115.5938 468.3125,117.6719 468.3125,120.3906 L468.3125,121.5156 C468.3125,124.0938 470.4219,125.9844 473.3125,125.9844 C474.5313,125.9844 475.6875,125.6875 476.4375,125.1406 C477.0156,124.7344 477.3438,124.2813 477.3438,123.8906 C477.3438,123.4375 476.9531,123.0469 476.4844,123.0469 C476.2656,123.0469 476.0625,123.125 475.875,123.3125 C475.4219,123.7969 475.4219,123.7969 475.2344,123.8906 C474.8125,124.1563 474.125,124.2813 473.3594,124.2813 C471.3125,124.2813 470.0156,123.1875 470.0156,121.4844 L470.0156,120.3906 C470.0156,118.6094 471.2656,117.2969 473,117.2969 C473.5781,117.2969 474.1875,117.4531 474.6563,117.7031 C475.1406,117.9844 475.3125,118.2031 475.4063,118.6094 C475.4688,119.0156 475.5,119.1406 475.6406,119.2656 C475.7813,119.4063 476.0156,119.5156 476.2344,119.5156 C476.5,119.5156 476.7656,119.375 476.9375,119.1563 C477.0469,119 477.0781,118.8125 477.0781,118.3906 L477.0781,116.9688 C477.0781,116.5313 477.0625,116.4063 476.9688,116.25 C476.8125,115.9844 476.5313,115.8438 476.2344,115.8438 C475.9375,115.8438 475.7344,115.9375 475.5156,116.25 L475.3438,116.1719 Z " fill="#000000"/><text fill="#000000" font-family="sans-serif" font-size="14" lengthAdjust="spacing" textLength="70" x="487" y="125.3467">SensorDB</text></g><!--MD5=[685100c0a641611b6a0c9acd51249dce]
class Mqtt\nRequestHandler--><g id="elem_Mqtt\nRequestHandler"><rect fill="#F1F1F1" height="42.5938" id="Mqtt\nRequestHandler" rx="2.5" ry="2.5" style="stroke:#181818;stroke-width:0.5;" width="146" x="7" y="202"/><ellipse cx="22" cy="223.2969" fill="#ADD1B2" rx="11" ry="11" style="stroke:#181818;stroke-width:1.0;"/><path d="M24.3438,218.9688 C23.4063,218.5313 22.8125,218.3906 21.9375,218.3906 C19.3125,218.3906 17.3125,220.4688 17.3125,223.1875 L17.3125,224.3125 C17.3125,226.8906 19.4219,228.7813 22.3125,228.7813 C23.5313,228.7813 24.6875,228.4844 25.4375,227.9375 C26.0156,227.5313 26.3438,227.0781 26.3438,226.6875 C26.3438,226.2344 25.9531,225.8438 25.4844,225.8438 C25.2656,225.8438 25.0625,225.9219 24.875,226.1094 C24.4219,226.5938 24.4219,226.5938 24.2344,226.6875 C23.8125,226.9531 23.125,227.0781 22.3594,227.0781 C20.3125,227.0781 19.0156,225.9844 19.0156,224.2813 L19.0156,223.1875 C19.0156,221.4063 20.2656,220.0938 22,220.0938 C22.5781,220.0938 23.1875,220.25 23.6563,220.5 C24.1406,220.7813 24.3125,221 24.4063,221.4063 C24.4688,221.8125 24.5,221.9375 24.6406,222.0625 C24.7813,222.2031 25.0156,222.3125 25.2344,222.3125 C25.5,222.3125 25.7656,222.1719 25.9375,221.9531 C26.0469,221.7969 26.0781,221.6094 26.0781,221.1875 L26.0781,219.7656 C26.0781,219.3281 26.0625,219.2031 25.9688,219.0469 C25.8125,218.7813 25.5313,218.6406 25.2344,218.6406 C24.9375,218.6406 24.7344,218.7344 24.5156,219.0469 L24.3438,218.9688 Z " fill="#000000"/><text fill="#000000" font-family="sans-serif" font-size="14" lengthAdjust="spacing" textLength="35" x="75.5" y="219.9951">Mqtt</text><text fill="#000000" font-family="sans-serif" font-size="14" lengthAdjust="spacing" textLength="114" x="36" y="236.292">RequestHandler</text></g><!--MD5=[3e81ff25ae4b850389372d03dbcdc14e]
class UDP\nRequestHandler--><g id="elem_UDP\nRequestHandler"><rect fill="#F1F1F1" height="42.5938" id="UDP\nRequestHandler" rx="2.5" ry="2.5" style="stroke:#181818;stroke-width:0.5;" width="146" x="188" y="202"/><ellipse cx="203" cy="223.2969" fill="#ADD1B2" rx="11" ry="11" style="stroke:#181818;stroke-width:1.0;"/><path d="M205.3438,218.9688 C204.4063,218.5313 203.8125,218.3906 202.9375,218.3906 C200.3125,218.3906 198.3125,220.4688 198.3125,223.1875 L198.3125,224.3125 C198.3125,226.8906 200.4219,228.7813 203.3125,228.7813 C204.5313,228.7813 205.6875,228.4844 206.4375,227.9375 C207.0156,227.5313 207.3438,227.0781 207.3438,226.6875 C207.3438,226.2344 206.9531,225.8438 206.4844,225.8438 C206.2656,225.8438 206.0625,225.9219 205.875,226.1094 C205.4219,226.5938 205.4219,226.5938 205.2344,226.6875 C204.8125,226.9531 204.125,227.0781 203.3594,227.0781 C201.3125,227.0781 200.0156,225.9844 200.0156,224.2813 L200.0156,223.1875 C200.0156,221.4063 201.2656,220.0938 203,220.0938 C203.5781,220.0938 204.1875,220.25 204.6563,220.5 C205.1406,220.7813 205.3125,221 205.4063,221.4063 C205.4688,221.8125 205.5,221.9375 205.6406,222.0625 C205.7813,222.2031 206.0156,222.3125 206.2344,222.3125 C206.5,222.3125 206.7656,222.1719 206.9375,221.9531 C207.0469,221.7969 207.0781,221.6094 207.0781,221.1875 L207.0781,219.7656 C207.0781,219.3281 207.0625,219.2031 206.9688,219.0469 C206.8125,218.7813 206.5313,218.6406 206.2344,218.6406 C205.9375,218.6406 205.7344,218.7344 205.5156,219.0469 L205.3438,218.9688 Z " fill="#000000"/><text fill="#000000" font-family="sans-serif" font-size="14" lengthAdjust="spacing" textLength="29" x="259.5" y="219.9951">UDP</text><text fill="#000000" font-family="sans-serif" font-size="14" lengthAdjust="spacing" textLength="114" x="217" y="236.292">RequestHandler</text></g><!--MD5=[880955150e6a2607d724edf310c058ad]
class UDP\nRequestQueueWorker--><g id="elem_UDP\nRequestQueueWorker"><rect fill="#F1F1F1" height="42.5938" id="UDP\nRequestQueueWorker" rx="2.5" ry="2.5" style="stroke:#181818;stroke-width:0.5;" width="189" x="369.5" y="202"/><ellipse cx="384.5" cy="223.2969" fill="#ADD1B2" rx="11" ry="11" style="stroke:#181818;stroke-width:1.0;"/><path d="M386.8438,218.9688 C385.9063,218.5313 385.3125,218.3906 384.4375,218.3906 C381.8125,218.3906 379.8125,220.4688 379.8125,223.1875 L379.8125,224.3125 C379.8125,226.8906 381.9219,228.7813 384.8125,228.7813 C386.0313,228.7813 387.1875,228.4844 387.9375,227.9375 C388.5156,227.5313 388.8438,227.0781 388.8438,226.6875 C388.8438,226.2344 388.4531,225.8438 387.9844,225.8438 C387.7656,225.8438 387.5625,225.9219 387.375,226.1094 C386.9219,226.5938 386.9219,226.5938 386.7344,226.6875 C386.3125,226.9531 385.625,227.0781 384.8594,227.0781 C382.8125,227.0781 381.5156,225.9844 381.5156,224.2813 L381.5156,223.1875 C381.5156,221.4063 382.7656,220.0938 384.5,220.0938 C385.0781,220.0938 385.6875,220.25 386.1563,220.5 C386.6406,220.7813 386.8125,221 386.9063,221.4063 C386.9688,221.8125 387,221.9375 387.1406,222.0625 C387.2813,222.2031 387.5156,222.3125 387.7344,222.3125 C388,222.3125 388.2656,222.1719 388.4375,221.9531 C388.5469,221.7969 388.5781,221.6094 388.5781,221.1875 L388.5781,219.7656 C388.5781,219.3281 388.5625,219.2031 388.4688,219.0469 C388.3125,218.7813 388.0313,218.6406 387.7344,218.6406 C387.4375,218.6406 387.2344,218.7344 387.0156,219.0469 L386.8438,218.9688 Z " fill="#000000"/><text fill="#000000" font-family="sans-serif" font-size="14" lengthAdjust="spacing" textLength="29" x="462.5" y="219.9951">UDP</text><text fill="#000000" font-family="sans-serif" font-size="14" lengthAdjust="spacing" textLength="157" x="398.5" y="236.292">RequestQueueWorker</text></g><!--MD5=[b0a3344693eafd32c471c819138f4959]
class Answer\nQueueWorker--><g id="elem_Answer\nQueueWorker"><rect fill="#F1F1F1" height="42.5938" id="Answer\nQueueWorker" rx="2.5" ry="2.5" style="stroke:#181818;stroke-width:0.5;" width="130" x="594" y="202"/><ellipse cx="609" cy="223.2969" fill="#ADD1B2" rx="11" ry="11" style="stroke:#181818;stroke-width:1.0;"/><path d="M611.3438,218.9688 C610.4063,218.5313 609.8125,218.3906 608.9375,218.3906 C606.3125,218.3906 604.3125,220.4688 604.3125,223.1875 L604.3125,224.3125 C604.3125,226.8906 606.4219,228.7813 609.3125,228.7813 C610.5313,228.7813 611.6875,228.4844 612.4375,227.9375 C613.0156,227.5313 613.3438,227.0781 613.3438,226.6875 C613.3438,226.2344 612.9531,225.8438 612.4844,225.8438 C612.2656,225.8438 612.0625,225.9219 611.875,226.1094 C611.4219,226.5938 611.4219,226.5938 611.2344,226.6875 C610.8125,226.9531 610.125,227.0781 609.3594,227.0781 C607.3125,227.0781 606.0156,225.9844 606.0156,224.2813 L606.0156,223.1875 C606.0156,221.4063 607.2656,220.0938 609,220.0938 C609.5781,220.0938 610.1875,220.25 610.6563,220.5 C611.1406,220.7813 611.3125,221 611.4063,221.4063 C611.4688,221.8125 611.5,221.9375 611.6406,222.0625 C611.7813,222.2031 612.0156,222.3125 612.2344,222.3125 C612.5,222.3125 612.7656,222.1719 612.9375,221.9531 C613.0469,221.7969 613.0781,221.6094 613.0781,221.1875 L613.0781,219.7656 C613.0781,219.3281 613.0625,219.2031 612.9688,219.0469 C612.8125,218.7813 612.5313,218.6406 612.2344,218.6406 C611.9375,218.6406 611.7344,218.7344 611.5156,219.0469 L611.3438,218.9688 Z " fill="#000000"/><text fill="#000000" font-family="sans-serif" font-size="14" lengthAdjust="spacing" textLength="52" x="646" y="219.9951">Answer</text><text fill="#000000" font-family="sans-serif" font-size="14" lengthAdjust="spacing" textLength="98" x="623" y="236.292">QueueWorker</text></g><!--MD5=[ad5ec2f03c6ab179768b9ca25e8affed]
reverse link Server to Mqtt\nHandlerThread--><g id="link_Server_Mqtt\nHandlerThread"><path codeLine="1" d="M324.538,45.815 C297.137,61.771 260.21,83.274 233.323,98.931 " fill="none" id="Server-backto-Mqtt\nHandlerThread" style="stroke:#181818;stroke-width:1.0;"/><polygon fill="#181818" points="336.014,39.132,328.8162,38.6944,325.6439,45.1703,332.8417,45.6078,336.014,39.132" style="stroke:#181818;stroke-width:1.0;"/></g><!--MD5=[9efb19c4c5d7da7940cd967c7a5209db]
reverse link Server to DataHandler--><g id="link_Server_DataHandler"><path codeLine="2" d="M362,52.437 C362,69.404 362,90.284 362,104.194 " fill="none" id="Server-backto-DataHandler" style="stroke:#181818;stroke-width:1.0;"/><polygon fill="#181818" points="362,39.344,358,45.344,362,51.344,366,45.344,362,39.344" style="stroke:#181818;stroke-width:1.0;"/></g><!--MD5=[8b455c6511f679ff2fe423af2dc17aeb]
reverse link Server to SensorDB--><g id="link_Server_SensorDB"><path codeLine="3" d="M396.388,46.34 C423.916,64.224 461.773,88.819 485.816,104.439 " fill="none" id="Server-backto-SensorDB" style="stroke:#181818;stroke-width:1.0;"/><polygon fill="#181818" points="385.293,39.132,388.145,45.7551,395.3556,45.6699,392.5036,39.0467,385.293,39.132" style="stroke:#181818;stroke-width:1.0;"/></g><!--MD5=[035fc301a580003149c417c3cdcc142d]
reverse link DataHandler to Mqtt\nRequestHandler--><g id="link_DataHandler_Mqtt\nRequestHandler"><path codeLine="4" d="M307.548,141.002 C258.636,158.5203 187.065,184.1542 137.298,201.9784 " fill="none" id="DataHandler-backto-Mqtt\nRequestHandler" style="stroke:#181818;stroke-width:1.0;"/><polygon fill="#181818" points="320.086,136.512,313.0885,134.7699,308.7891,140.5591,315.7866,142.3012,320.086,136.512" style="stroke:#181818;stroke-width:1.0;"/></g><!--MD5=[755f3f1b599691c4ccbc94d0dd50d83b]
reverse link DataHandler to UDP\nRequestHandler--><g id="link_DataHandler_UDP\nRequestHandler"><path codeLine="5" d="M337.335,146.1655 C320.291,163.2087 297.875,185.6247 281.749,201.7506 " fill="none" id="DataHandler-backto-UDP\nRequestHandler" style="stroke:#181818;stroke-width:1.0;"/><polygon fill="#181818" points="346.66,136.84,339.5889,138.2539,338.1744,145.325,345.2455,143.911,346.66,136.84" style="stroke:#181818;stroke-width:1.0;"/></g><!--MD5=[a64d7de201d769d7854bd0fa1d8c44b6]
reverse link DataHandler to UDP\nRequestQueueWorker--><g id="link_DataHandler_UDP\nRequestQueueWorker"><path codeLine="6" d="M386.91,146.1655 C404.122,163.2087 426.76,185.6247 443.045,201.7506 " fill="none" id="DataHandler-backto-UDP\nRequestQueueWorker" style="stroke:#181818;stroke-width:1.0;"/><polygon fill="#181818" points="377.492,136.84,378.9408,143.9041,386.0187,145.2837,384.5699,138.2196,377.492,136.84" style="stroke:#181818;stroke-width:1.0;"/></g><!--MD5=[da4d7372ee35804aa9db00f54e52c897]
reverse link DataHandler to Answer\nQueueWorker--><g id="link_DataHandler_Answer\nQueueWorker"><path codeLine="7" d="M418.692,140.779 C470.22,158.302 546.017,184.0783 598.654,201.9784 " fill="none" id="DataHandler-backto-Answer\nQueueWorker" style="stroke:#181818;stroke-width:1.0;"/><polygon fill="#181818" points="406.143,136.512,410.5357,142.2308,417.504,140.3755,413.1114,134.6568,406.143,136.512" style="stroke:#181818;stroke-width:1.0;"/></g><!--MD5=[8264e819a7ea0b31a25a9ceaf1f75311]
@startuml
Server *- - "Mqtt\nHandlerThread"
Server *- - DataHandler
Server *- - SensorDB
DataHandler *- - Mqtt\nRequestHandler
DataHandler *- - UDP\nRequestHandler
DataHandler *- - UDP\nRequestQueueWorker
DataHandler *- - Answer\nQueueWorker
hide members
@enduml

PlantUML version 1.2022.7beta2(Unknown compile time)
(GPL source distribution)
Java Runtime: Java(TM) SE Runtime Environment
JVM: Java HotSpot(TM) 64-Bit Server VM
Default Encoding: UTF-8
Language: en
Country: US
--></g></svg>